<svg xmlns="http://www.w3.org/2000/svg" viewBox="0 0 64 64" width="64" height="64">
  <path d="M32 4
    C32 4 38 14 36 22
    C40 18 42 12 40 6
    C48 12 54 22 52 34
    C58 30 60 22 58 16
    C64 26 64 38 58 48
    C54 56 44 62 32 62
    C20 62 10 56 6 48
    C0 38 0 26 6 16
    C4 22 6 30 12 34
    C10 22 16 12 24 6
    C22 12 24 18 28 22
    C26 14 32 4 32 4Z"
    fill="#FF6B2B"/>
  <path d="M32 20
    C32 20 36 28 34 34
    C37 31 38 26 36 22
    C41 28 42 36 38 44
    C41 41 43 36 41 30
    C45 36 44 44 40 50
    C37 55 34 58 32 58
    C30 58 27 55 24 50
    C20 44 19 36 23 30
    C23 36 25 41 28 44
    C24 36 25 28 30 22
    C28 26 29 31 32 34
    C30 28 32 20 32 20Z"
    fill="#FFD166"/>
</svg>
